<?xml version="1.0" standalone="no"?>
<!DOCTYPE svg PUBLIC "-//W3C//DTD SVG 20010904//EN"
 "http://www.w3.org/TR/2001/REC-SVG-20010904/DTD/svg10.dtd">
<svg version="1.0" xmlns="http://www.w3.org/2000/svg"
 width="1482.000000pt" height="1482.000000pt" viewBox="0 0 1482.000000 1482.000000"
 preserveAspectRatio="xMidYMid meet">
<metadata>
Created by potrace 1.11, written by Peter Selinger 2001-2013
</metadata>
<g transform="translate(0.000000,1482.000000) scale(0.100000,-0.100000)"
fill="#000000" stroke="none">
<path d="M3329 11746 c-2 -2 -38 -7 -79 -11 -148 -13 -226 -22 -275 -31 -10
-2 -37 -6 -60 -10 -213 -32 -532 -123 -755 -216 -107 -45 -329 -155 -390 -193
-22 -14 -42 -25 -44 -25 -11 0 -241 -160 -335 -234 -95 -74 -336 -303 -422
-401 -227 -260 -449 -624 -603 -992 -110 -263 -224 -656 -270 -933 -9 -52 -18
-104 -20 -115 -3 -20 -13 -90 -22 -152 -2 -18 -6 -48 -8 -65 -3 -18 -8 -69
-11 -113 -3 -44 -8 -96 -10 -115 -13 -107 -18 -295 -16 -730 1 -522 4 -613 25
-860 12 -137 34 -305 50 -390 3 -14 8 -41 10 -60 3 -19 8 -46 11 -60 3 -14 8
-38 11 -55 3 -16 11 -58 19 -91 8 -34 16 -73 19 -85 35 -166 146 -508 218
-669 11 -25 27 -61 35 -80 19 -44 84 -174 134 -265 207 -384 540 -772 884
-1030 44 -33 82 -63 85 -66 26 -31 324 -206 470 -276 373 -179 735 -278 1230
-338 169 -20 691 -27 935 -13 111 7 281 22 365 33 19 2 58 7 85 11 139 16 337
52 509 91 37 8 73 16 80 17 24 6 75 19 181 48 526 144 1022 373 1366 631 117
87 151 117 264 228 l90 88 -1 1733 -1 1733 -1726 3 -1727 2 0 -700 0 -700 708
0 708 0 0 -656 -1 -656 -80 -60 c-120 -90 -360 -198 -495 -223 -14 -3 -36 -7
-50 -10 -163 -37 -301 -49 -550 -49 -224 0 -297 6 -440 36 -170 35 -284 74
-422 143 -248 125 -482 370 -622 652 -74 148 -156 371 -182 488 -1 6 -9 42
-18 80 -9 39 -21 88 -26 110 -9 39 -40 226 -45 275 -8 78 -17 158 -20 180 -14
89 -20 332 -20 795 0 520 5 661 28 875 4 30 9 80 12 110 10 86 53 314 81 425
109 430 271 744 508 985 206 210 474 341 767 377 126 15 425 9 542 -12 15 -3
55 -10 89 -16 88 -15 252 -71 339 -114 275 -139 455 -364 573 -717 33 -100 78
-286 91 -378 4 -24 9 -48 11 -52 3 -5 446 -8 985 -8 l979 0 -4 23 c-3 12 -8
47 -11 77 -9 93 -30 220 -57 355 -38 191 -118 475 -163 580 -7 17 -30 71 -50
120 -86 207 -231 454 -377 636 -83 104 -253 280 -333 344 -27 22 -54 45 -60
51 -17 19 -176 130 -260 182 -191 118 -415 220 -654 299 -75 25 -143 46 -151
48 -8 2 -71 17 -140 34 -212 51 -476 94 -662 107 -46 3 -96 8 -113 11 -34 5
-710 14 -716 9z"/>
<path d="M8270 7405 l0 -4226 1908 4 c1049 2 1923 6 1942 10 19 3 69 8 110 11
41 4 93 8 115 11 22 3 58 8 80 10 333 38 767 145 1005 247 196 84 504 260 585
334 11 11 47 42 80 69 33 28 72 64 88 80 16 17 50 53 76 80 148 156 299 403
383 630 51 138 105 332 122 445 37 235 37 238 41 515 3 281 -7 394 -56 591
-134 545 -479 953 -994 1175 -71 30 -274 99 -293 99 -25 0 -2 15 53 36 99 36
378 191 405 224 3 4 12 11 22 16 25 14 124 102 195 174 260 263 433 651 481
1080 15 140 7 555 -13 670 -3 14 -7 38 -9 54 -120 719 -577 1256 -1336 1571
-177 73 -559 183 -735 211 -22 3 -44 7 -50 9 -46 10 -120 22 -215 35 -188 24
-168 22 -330 35 -52 4 -115 9 -140 13 -25 3 -827 7 -1782 9 l-1738 4 0 -4226z
m3355 2641 c22 -3 74 -11 115 -17 265 -38 471 -124 605 -254 79 -76 120 -132
159 -216 71 -154 91 -274 90 -524 -1 -127 -5 -178 -22 -247 -101 -413 -387
-612 -957 -667 -49 -5 -365 -9 -700 -10 l-610 -2 1 973 c1 535 2 975 3 976 2
7 1275 -5 1316 -12z m295 -3277 c271 -37 449 -114 588 -251 53 -52 152 -184
152 -202 0 -3 11 -29 24 -58 29 -63 52 -139 66 -216 5 -32 12 -68 15 -82 3
-14 8 -86 12 -161 18 -398 -103 -673 -377 -859 -121 -82 -254 -129 -504 -177
-17 -3 -382 -8 -811 -10 l-780 -4 0 1016 0 1015 775 -1 c426 0 804 -5 840 -10z"/>
</g>
</svg>
