<?xml version="1.0" standalone="no"?>
<!DOCTYPE svg PUBLIC "-//W3C//DTD SVG 20010904//EN"
 "http://www.w3.org/TR/2001/REC-SVG-20010904/DTD/svg10.dtd">
<svg version="1.0" xmlns="http://www.w3.org/2000/svg"
 width="1000.000000pt" height="1000.000000pt" viewBox="0 0 1000.000000 1000.000000"
 preserveAspectRatio="xMidYMid meet">
<metadata>
Created by potrace 1.11, written by Peter Selinger 2001-2013
</metadata>
<g transform="translate(0.000000,1000.000000) scale(0.100000,-0.100000)"
fill="#000000" stroke="none">
<path d="M2277 7884 c-1 -1 -49 -5 -107 -9 -633 -40 -1195 -295 -1570 -711
-330 -366 -534 -872 -587 -1454 -11 -113 -10 -1273 0 -1375 5 -44 10 -98 12
-120 2 -22 7 -58 10 -80 4 -22 9 -53 11 -70 50 -327 187 -700 351 -952 140
-216 281 -367 513 -546 63 -49 224 -143 330 -194 76 -36 261 -109 300 -119 8
-2 58 -15 110 -29 52 -14 104 -27 115 -29 183 -36 217 -40 430 -61 76 -8 400
-8 480 0 128 12 162 16 220 25 33 5 78 12 100 15 116 17 342 84 510 150 80 31
248 116 253 128 2 4 8 7 14 7 13 0 179 112 248 168 354 286 593 693 674 1152
26 147 28 177 31 515 4 352 -3 429 -45 555 -77 230 -259 363 -545 398 -33 4
-339 7 -680 7 -683 -1 -687 -1 -815 -65 -166 -84 -250 -278 -215 -500 22 -144
113 -269 235 -323 109 -48 176 -56 495 -57 164 0 302 -5 305 -9 12 -21 1 -323
-15 -412 -12 -63 -47 -159 -83 -222 -125 -224 -358 -375 -651 -423 -98 -16
-328 -21 -391 -9 -19 4 -44 8 -55 10 -121 19 -207 46 -311 97 -246 121 -420
335 -519 640 -19 60 -38 125 -41 145 -3 21 -8 41 -10 44 -2 4 -6 24 -10 45 -3
22 -7 50 -10 64 -5 27 -11 87 -19 190 -7 79 -7 983 -1 1060 29 343 102 586
234 782 169 250 407 387 754 433 57 7 290 9 315 1 10 -2 38 -7 63 -10 96 -12
250 -67 360 -129 136 -76 306 -214 506 -412 155 -154 194 -183 284 -219 68
-27 95 -31 215 -31 88 1 123 5 175 24 192 67 305 200 345 406 3 17 6 65 5 108
0 231 -128 485 -360 717 -272 272 -606 465 -998 574 -102 29 -304 71 -382 81
-30 4 -66 8 -80 10 -89 12 -493 28 -503 19z"/>
<path d="M6300 7782 c-249 -18 -391 -73 -520 -202 -75 -74 -127 -160 -160
-263 -39 -125 -39 -115 -37 -2342 l3 -2140 22 -80 c47 -166 133 -294 251 -374
84 -57 200 -101 311 -119 62 -10 2119 -9 2205 1 600 68 1058 298 1339 672 145
193 225 387 271 655 11 59 13 331 5 400 -43 336 -167 594 -385 804 -169 163
-411 288 -643 333 -15 3 -34 6 -42 8 -26 5 -149 18 -157 16 -11 -3 -21 31 -15
51 2 10 10 18 17 18 53 0 302 90 377 137 21 13 40 23 43 23 14 0 156 112 207
164 277 276 394 688 324 1131 -45 278 -218 572 -433 736 -32 24 -60 46 -63 50
-3 3 -39 26 -80 52 -193 119 -432 201 -710 243 -25 3 -53 8 -63 10 -69 13
-346 17 -1132 18 -495 1 -916 0 -935 -2z m1545 -956 c136 -19 295 -85 378
-157 89 -77 153 -182 183 -302 17 -64 23 -224 11 -292 -11 -65 -14 -77 -35
-133 -86 -225 -317 -368 -647 -400 -38 -3 -241 -6 -450 -7 l-380 0 0 640 c-1
352 1 645 2 650 4 12 856 13 938 1z m64 -2159 c249 -29 405 -97 541 -237 120
-122 179 -274 184 -475 8 -301 -110 -511 -355 -635 -52 -27 -154 -64 -207 -75
-12 -3 -32 -7 -44 -10 -22 -5 -47 -9 -113 -20 -79 -13 -251 -18 -600 -17 -209
0 -387 1 -395 1 -13 1 -15 87 -14 719 1 394 2 726 3 737 1 20 8 20 473 19 260
-1 497 -4 527 -7z"/>
</g>
</svg>
